<svg id="brazcom-square-b-darkmode" width="400" height="400" viewBox="0 0 500 500" xmlns="http://www.w3.org/2000/svg">
    
    <defs>
        <linearGradient id="grad-square-dark" x1="0%" y1="100%" x2="100%" y2="0%">
            <stop offset="0%" style="stop-color:#3399FF;stop-opacity:1"/>
            <stop offset="100%" style="stop-color:#66D9FF;stop-opacity:1"/>
        </linearGradient>
    </defs>

    <g transform="translate(22, 34) scale(4.8)">
        <path d="M10,0 L40,15 L40,85 L10,70 Z" fill="url(#grad-square-dark)"/>
        
        <path d="M10,70 L40,85 L30,90 L0,75 Z" fill="#0088FE"/> <path d="M0,5 L10,0 L10,70 L0,75 Z" fill="#006CE6"/> <path d="M40,15 L70,0 C85,7.5 85,22.5 70,30 L40,45 Z" fill="url(#grad-square-dark)" opacity="0.95"/>
        <path d="M70,30 C85,22.5 85,7.5 70,0 L70,5 C80,12.5 80,22.5 70,30 Z" fill="#99EBFF"/>

        <path d="M40,45 L75,27.5 C95,37.5 95,57.5 75,67.5 L40,85 Z" fill="url(#grad-square-dark)" opacity="0.85"/>
        <path d="M75,67.5 C95,57.5 95,37.5 75,27.5 L75,32.5 C90,42.5 90,57.5 75,67.5 Z" fill="#99EBFF"/>
    </g>
</svg>